<?xml version="1.0" encoding="UTF-8" standalone="no"?>
<!-- Created with Inkscape (http://www.inkscape.org/) -->

<svg
   width="42mm"
   height="59.4mm"
   viewBox="0 0 210 297"
   version="1.1"
   id="svg5"
   inkscape:version="1.2.2 (732a01da63, 2022-12-09, custom)"
   sodipodi:docname="avatar.svg"
   xmlns:inkscape="http://www.inkscape.org/namespaces/inkscape"
   xmlns:sodipodi="http://sodipodi.sourceforge.net/DTD/sodipodi-0.dtd"
   xmlns="http://www.w3.org/2000/svg"
   xmlns:svg="http://www.w3.org/2000/svg">
  <sodipodi:namedview
     id="namedview7"
     pagecolor="#ffffff"
     bordercolor="#000000"
     borderopacity="0.25"
     inkscape:showpageshadow="2"
     inkscape:pageopacity="0.0"
     inkscape:pagecheckerboard="0"
     inkscape:deskcolor="#d1d1d1"
     inkscape:document-units="mm"
     showgrid="false"
     inkscape:zoom="0.456035"
     inkscape:cx="271.90896"
     inkscape:cy="564.64965"
     inkscape:window-width="1366"
     inkscape:window-height="704"
     inkscape:window-x="0"
     inkscape:window-y="0"
     inkscape:window-maximized="1"
     inkscape:current-layer="layer1" />
  <defs
     id="defs2">
    <inkscape:path-effect
       effect="spiro"
       id="path-effect2932"
       is_visible="true"
       lpeversion="1" />
  </defs>
  <g
     inkscape:label="Avatar"
     inkscape:groupmode="layer"
     id="layer1"
     transform="matrix(1.809941,0,0,1.809941,-66.896253,-2.8859902)">
    <g
       id="g283"
       inkscape:label="hat">
      <path
         style="fill:#2b0000;fill-opacity:1;stroke-width:0.0669837"
         d="m 50.464211,23.016146 c 0,0 -7.302865,6.29183 -7.302865,12.342803 0,6.050965 13.47577,11.824663 13.47577,11.824663 0,0 -1.788154,-22.652592 -6.172905,-24.167466 z"
         id="path2950" />
      <path
         style="fill:#2b0000;fill-opacity:1;stroke-width:0.282338"
         d="m 106.25617,56.450655 c 0,0 -37.594656,17.567429 -55.356839,38.934954 -17.762185,21.367581 -13.52786,-37.06108 2.851939,-54.583971 16.37979,-17.52287 44.676527,-19.821135 44.676527,-19.821135 0,0 38.011743,-17.5745484 12.490553,19.86127 -25.52119,37.435831 -9.85805,-9.31363 -9.85805,-9.31363 0,0 16.12769,0.966099 5.19587,24.922512 z"
         id="path2747"
         sodipodi:nodetypes="csscscc" />
    </g>
    <g
       id="g298"
       inkscape:label="hair-face">
      <path
         style="fill:#502d16;fill-opacity:1;stroke-width:0.240066"
         d="m 80.112711,50.51539 c 0,0 -5.711874,19.278802 -12.751182,27.50851 -7.03931,8.229708 1.569056,31.41015 1.569056,31.41015 0,0 -15.640416,-27.069213 -10.65833,-42.721501 4.982085,-15.65229 22.802966,-26.96673 21.840456,-16.197159 z"
         id="path2119" />
      <path
         style="fill:#502d16;fill-opacity:1;stroke-width:0.240066"
         d="m 125.4636,48.610204 c 0,0 7.01141,18.845104 14.59478,26.576369 7.58337,7.731266 0.57345,31.444087 0.57345,31.444087 0,0 13.76084,-28.071412 7.72448,-43.348114 C 142.31995,48.005841 123.76997,37.931173 125.4636,48.610204 Z"
         id="path2125" />
      <rect
         style="fill:#ffccaa;stroke-width:0.269692"
         id="rect906"
         width="107.50364"
         height="78.814064"
         x="49.658615"
         y="-141.77795"
         rx="36.058605"
         ry="39.407032"
         transform="rotate(89.046885)"
         inkscape:label="face" />
      <path
         style="fill:#502d16;fill-opacity:1;stroke-width:0.264583"
         d="m 72.406705,54.200498 c 0,0 30.189085,-9.02066 39.822215,7.90025 9.63312,16.92091 0.26353,-13.66864 0.26353,-13.66864 0,0 11.96375,14.38417 10.32952,20.97998 -1.63423,6.59581 12.21108,-7.00216 5.5608,-15.98012 -6.65029,-8.97796 6.35583,4.46984 6.35583,4.46984 0,0 -13.20635,-49.8734699 -62.331895,-3.70131 z"
         id="path1565" />
    </g>
    <g
       id="g1506"
       transform="matrix(0.48235016,0,0,0.49837621,30.353912,7.2099141)"
       style="display:inline"
       inkscape:label="mouth">
      <ellipse
         style="fill:#ff0000;stroke-width:0.154696"
         id="circle1464"
         cx="134.06104"
         cy="239.51268"
         rx="13.524035"
         ry="4.2541065" />
      <ellipse
         style="fill:#ff0000;stroke-width:0.120513"
         id="circle1466"
         cx="154.41924"
         cy="239.43625"
         rx="8.207468"
         ry="4.2541065" />
      <ellipse
         style="fill:#ff0000;stroke-width:0.172182"
         id="circle1468"
         cx="174.90102"
         cy="239.28191"
         rx="16.75423"
         ry="4.2541065" />
      <ellipse
         style="fill:#ffccaa;fill-opacity:1;stroke-width:0.152325"
         id="circle1470"
         cx="134.87395"
         cy="237.37151"
         rx="13.11258"
         ry="4.2541065" />
      <ellipse
         style="fill:#ffccaa;fill-opacity:1;stroke-width:0.120513"
         id="circle1472"
         cx="154.82068"
         cy="237.24052"
         rx="8.207468"
         ry="4.2541065" />
      <ellipse
         style="fill:#ffccaa;fill-opacity:1;stroke-width:0.16958"
         id="circle1474"
         cx="174.79987"
         cy="237.14075"
         rx="16.251637"
         ry="4.2541065" />
      <g
         id="g3822"
         transform="matrix(1.3277667,0,0,-1.0116219,16.303683,387.79622)"
         style="display:inline">
        <ellipse
           style="fill:#502d16;fill-opacity:1;stroke-width:0.264583"
           id="path3747"
           cx="105.00374"
           cy="127.80872"
           rx="12.70455"
           ry="9.8149996" />
        <ellipse
           style="fill:#ffccaa;fill-opacity:1;stroke-width:0.31844"
           id="ellipse3749"
           cx="105.37313"
           cy="125.17975"
           rx="18.403189"
           ry="9.8149996" />
      </g>
    </g>
    <g
       id="g1462"
       transform="matrix(0.3633656,0,0,0.3194835,69.190896,41.257416)"
       inkscape:label="nose">
      <circle
         style="fill:#502d16;stroke-width:0.264583"
         id="path1235"
         cx="78.144913"
         cy="230.14305"
         r="12.972991" />
      <circle
         style="fill:#502d16;stroke-width:0.264583"
         id="circle1237"
         cx="99.682892"
         cy="225.25951"
         r="12.972991" />
      <circle
         style="fill:#502d16;stroke-width:0.264583"
         id="circle1241"
         cx="120.78507"
         cy="229.4393"
         r="12.972991" />
      <circle
         style="fill:#ffccaa;fill-opacity:1;stroke-width:0.264583"
         id="circle1243"
         cx="78.779465"
         cy="223.61349"
         r="12.972991" />
      <circle
         style="fill:#ffccaa;fill-opacity:1;stroke-width:0.264583"
         id="circle1245"
         cx="100.31744"
         cy="218.56358"
         r="12.972991" />
      <circle
         style="fill:#ffccaa;fill-opacity:1;stroke-width:0.264583"
         id="circle1247"
         cx="121.41962"
         cy="222.90974"
         r="12.972991" />
    </g>
    <g
       id="g292"
       inkscape:label="ears">
      <ellipse
         style="fill:#ffccaa;fill-opacity:1;stroke-width:0.264583"
         id="ellipse2200"
         cx="145.16528"
         cy="103.74785"
         rx="4.1061873"
         ry="10.69243"
         inkscape:label="earR" />
      <ellipse
         style="fill:#ffccaa;fill-opacity:1;stroke-width:0.264583"
         id="path2129"
         cx="62.847198"
         cy="102.86153"
         rx="4.1061873"
         ry="10.69243"
         inkscape:label="earL" />
    </g>
    <g
       id="g3706"
       transform="matrix(0.30340802,0.06693545,-0.06838114,0.30996111,79.079112,21.908974)"
       inkscape:label="eyeL">
      <path
         style="fill:#2b0000;fill-opacity:1;stroke-width:0.264583"
         d="M 55.65805,231.53067 Z"
         id="path2749" />
      <path
         style="fill:#502d16;fill-opacity:1;stroke-width:0.264583"
         d="m 106.24705,210.70527 c 0,0 -15.23662,-22.99406 -27.24012,-22.16369 -12.00349,0.83036 -40.905811,3.85737 -56.361801,29.73415 -15.4559896,25.8768 80.489521,-1.92427 80.489521,-1.92427 z"
         id="path2952" />
      <path
         style="fill:#f2f2f2;fill-opacity:1;stroke-width:0.226939"
         d="m 99.62915,213.43254 c 0,0 -12.58165,-20.48606 -22.49355,-19.74626 -9.9119,0.73979 -33.77803,3.43665 -46.540828,26.491 -12.762801,23.05438 66.464318,-1.71438 66.464318,-1.71438 z"
         id="path3008" />
      <circle
         style="fill:#008080;fill-opacity:1;stroke-width:0.342153"
         id="path3562"
         cx="69.597603"
         cy="210.5448"
         r="16.832571" />
      <path
         style="fill:#502d16;stroke-width:0.137941"
         d="m 92.268556,74.358958 c 0,0 -7.995704,-1.997539 -16.76503,-1.679141 -8.769327,0.318398 -9.605768,11.571918 -9.605768,11.571918 0,0 12.618325,-9.359523 26.332559,-0.104401 13.714243,9.255115 -1.062449,-17.127072 0.03822,-9.788376 z"
         id="path1179"
         inkscape:label="eyeBrowL"
         transform="matrix(3.1429266,-0.6787084,0.69336733,3.07648,-263.73081,-13.730862)" />
    </g>
    <g
       id="g3716"
       transform="matrix(-0.30340802,0.06693545,0.06838114,0.30996111,130.51397,21.721643)"
       inkscape:label="eyeR">
      <path
         style="fill:#2b0000;fill-opacity:1;stroke-width:0.264583"
         d="M 55.65805,231.53067 Z"
         id="path3708" />
      <path
         style="fill:#502d16;fill-opacity:1;stroke-width:0.264583"
         d="m 106.24705,210.70527 c 0,0 -15.23662,-22.99406 -27.24012,-22.16369 -12.00349,0.83036 -40.905811,3.85737 -56.361801,29.73415 -15.4559896,25.8768 80.489521,-1.92427 80.489521,-1.92427 z"
         id="path3710" />
      <path
         style="fill:#f2f2f2;fill-opacity:1;stroke-width:0.226939"
         d="m 99.62915,213.43254 c 0,0 -12.58165,-20.48606 -22.49355,-19.74626 -9.9119,0.73979 -33.77803,3.43665 -46.540828,26.491 -12.762801,23.05438 66.464318,-1.71438 66.464318,-1.71438 z"
         id="path3712" />
      <circle
         style="fill:#008080;fill-opacity:1;stroke-width:0.342153"
         id="circle3714"
         cx="69.597603"
         cy="210.5448"
         r="16.832571" />
      <path
         style="fill:#502d16;stroke-width:0.1392"
         d="m 117.43592,74.344235 c 0,0 8.14231,-1.997539 17.07242,-1.679141 8.93012,0.318398 9.7819,11.571918 9.7819,11.571918 0,0 -12.84969,-9.359523 -26.81538,-0.104401 -13.96569,9.255115 1.08193,-17.127072 -0.0389,-9.788376 z"
         id="path1181"
         inkscape:label="eyeBrowR"
         transform="matrix(-3.1429266,0.6787084,0.69336733,3.07648,395.13475,-155.40713)" />
    </g>
  </g>
</svg>
